<svg xmlns="http://www.w3.org/2000/svg" viewBox="1761.242 4478.371 63.258 63.258">
  <path id="iconmonstr-help-3" d="M31.629,5.271A26.357,26.357,0,1,1,5.271,31.629,26.387,26.387,0,0,1,31.629,5.271Zm0-5.271A31.629,31.629,0,1,0,63.258,31.629,31.63,31.63,0,0,0,31.629,0Zm3.295,44.808a3.295,3.295,0,1,1-3.295-3.295A3.294,3.294,0,0,1,34.924,44.808ZM38.6,18.455a9.3,9.3,0,0,0-6.724-2.517c-5.746,0-9.462,4.085-9.462,10.411h5.3c0-3.917,2.185-5.306,4.054-5.306a3.484,3.484,0,0,1,3.6,3.231c.163,2.232-1.028,3.366-2.536,4.8-3.722,3.54-3.79,5.253-3.774,9.141h5.285c-.034-1.75.079-3.171,2.464-5.741,1.784-1.924,4-4.317,4.049-7.965A8.251,8.251,0,0,0,38.6,18.455Z" transform="translate(1761.242 4478.371)"/>
</svg>
