<svg xmlns="http://www.w3.org/2000/svg" viewBox="2162.5 4703.918 60 44.637">
  <defs>
    <style>
      .cls-1 {
        fill-rule: #FFFFFF;
      }
    </style>
  </defs>
  <g id="UNESCO_logo_2" data-name="UNESCO_logo 2" transform="translate(2162.125 4703.418)">
    <path id="path10" class="cls-1" d="M60.938,93.254v18.513c0,.5-.056.752.112,1a.449.449,0,0,0,.39.251.517.517,0,0,0,.474-.278c.167-.251.14-.5.14-1.032V93.254h.864V112.13c0,1.282-.474,1.924-1.478,1.924a1.371,1.371,0,0,1-1.059-.446,2.1,2.1,0,0,1-.418-1.45v-18.9Z" transform="translate(-50.721 -78.953)"/>
    <path id="polygon12" class="cls-1" d="M364.263,263.442l-1.394-12.714v12.714h-.753V242.754h1l1.422,11.933V242.754h.642v20.688Z" transform="translate(-344.817 -228.454)"/>
    <path id="polygon14" class="cls-1" d="M418.488,252.067v.725h-1.366v9.786h1.561v.864H415.9V242.754h2.593v.892h-1.366v8.42Z" transform="translate(-390.595 -228.454)"/>
    <path id="polygon16" class="cls-1" d="M336.62,223.079v1.729H287.912v-1.729H336.62Z" transform="translate(-281.655 -211.706)"/>
    <path id="polygon18" class="cls-1" d="M336.62,392.1v1.728H287.912V392.1H336.62Z" transform="translate(-281.655 -355.58)"/>
    <path id="polygon20" class="cls-1" d="M321.433,415.522v1.729H266.925v-1.729h54.508Z" transform="translate(-263.79 -375.515)"/>
    <path id="polygon22" class="cls-1" d="M308.375,438.2v1.756h-60V438.2h60Z" transform="translate(-248 -394.815)"/>
    <path id="polygon24" class="cls-1" d="M311.391,150l24.479,6.971v1.84l-24.7-6.719-24.005,6.831h0v-1.84Z" transform="translate(-281.017 -149.5)"/>
    <path id="polygon26" class="cls-1" d="M362.063,178.86h-5.047l-13.689-3.708-13.661,3.6-5.214.111h0l18.931-5.437Z" transform="translate(-312.757 -169.438)"/>
    <path id="path28" class="cls-1" d="M220.017,98.423h1.06V94.408a3.718,3.718,0,0,0-.307-1.505,1.6,1.6,0,0,0-1.338-.586,1.2,1.2,0,0,0-1.115.53,2.126,2.126,0,0,0-.39,1.394c0,.557.028,3.039.111,3.875.084.809.865,4.1,1.311,5.688a20.763,20.763,0,0,1,.642,2.872c.028.473.083,2.063.028,2.844-.028.781,0,1.868,0,1.868s.056.865-.446.865c-.53,0-.474-.865-.474-.865v-4.907h-1.06v4.879s-.278,1.784,1.394,1.784a1.593,1.593,0,0,0,1.7-1.589v-4.461a15.066,15.066,0,0,0-.363-2.509c-.278-1-1.171-4.21-1.366-5.1a17.5,17.5,0,0,1-.307-3.6c0-1.254.028-2.035.028-2.035s-.028-.586.446-.586c.446,0,.418.613.418.613l.028,4.545Z" transform="translate(-185.182 -78.155)"/>
    <path id="path30" class="cls-1" d="M274.867,97.523h.92V92.7a1.385,1.385,0,0,0-1.45-1.505,1.455,1.455,0,0,0-1.5,1.533V110.85a1.449,1.449,0,0,0,1.5,1.506,1.364,1.364,0,0,0,1.45-1.478v-5.436h-.92v5.409c0,.279.028.613-.53.613-.585,0-.529-.5-.529-.7V92.783c0-.2-.056-.7.529-.7.558,0,.53.363.53.641v4.8Z" transform="translate(-231.918 -77.2)"/>
    <path id="path32" class="cls-1" d="M328.977,91.194a1.549,1.549,0,0,0-1.617,1.533V110.85a1.545,1.545,0,0,0,1.617,1.506,1.457,1.457,0,0,0,1.561-1.478V92.7a1.478,1.478,0,0,0-1.561-1.505Zm.641,19.656c0,.279-.083.613-.641.613a.622.622,0,0,1-.641-.7V92.783a.623.623,0,0,1,.641-.7.567.567,0,0,1,.641.641V110.85Z" transform="translate(-278.332 -77.2)"/>
  </g>
</svg>
